<?xml version="1.0" standalone="no"?><!DOCTYPE svg PUBLIC "-//W3C//DTD SVG 1.1//EN" "http://www.w3.org/Graphics/SVG/1.1/DTD/svg11.dtd"><svg t="1543218735041" class="icon" style="" viewBox="0 0 1024 1024" version="1.1" xmlns="http://www.w3.org/2000/svg" p-id="4347" xmlns:xlink="http://www.w3.org/1999/xlink" width="200" height="200"><defs><style type="text/css"></style></defs><path d="M1013.41866667 966.88355555s-29.01333333 50.97244445-96.82488889 50.97244445H101.376c-37.66044445 0-70.08711111-20.59377778-87.72266667-50.97244445 0 0-14.10844445-14.56355555-14.10844444-50.97244444v-25.48622222h1.70666666c13.65333333-154.28266667 149.27644445-283.30666667 335.18933334-333.71022222-80.32711111-55.06844445-133.12-147.456-133.12-252.24533334C203.32088889 135.73688889 340.19555555-1.13777778 508.928-1.13777778S814.64888889 135.73688889 814.64888889 304.58311111c0 104.78933333-52.79288889 197.17688889-133.12 252.24533334C867.44177778 607.11822222 1003.17866667 736.14222222 1016.71822222 890.42488889h1.70666667V915.91111111c0 17.408-2.048 34.24711111-5.00622222 50.97244444z" fill="#515151" p-id="4348"></path></svg>