<?xml version="1.0" standalone="no"?><!DOCTYPE svg PUBLIC "-//W3C//DTD SVG 1.1//EN" "http://www.w3.org/Graphics/SVG/1.1/DTD/svg11.dtd"><svg t="1543218708421" class="icon" style="" viewBox="0 0 1024 1024" version="1.1" xmlns="http://www.w3.org/2000/svg" p-id="4008" xmlns:xlink="http://www.w3.org/1999/xlink" width="200" height="200"><defs><style type="text/css"></style></defs><path d="M939.589 124.037H667.87c-63.423 0-119.832 27.091-155.284 68.893-35.43-41.802-91.828-68.893-155.256-68.893H85.599c-42.81 0-77.631 30.853-77.631 68.797v636.523c0 59.581 13.147 68.826 77.631 68.826h285.368c38.099 32.979 88.791 51.593 141.619 51.593 52.859 0 103.54-18.614 141.633-51.593h285.37c42.802 0 77.642-30.855 77.642-68.826V192.834c-0.001-37.914-34.796-68.797-77.642-68.797z m20.061 721.569c-7.065 1.308-14.194-0.01-14.194-0.01h-308.03c-11.337 0-22.097 4.369-29.482 12.017-24.299 25.134-59.057 39.571-95.357 39.571-36.269 0-71.029-14.438-95.325-39.571-7.398-7.647-18.16-12.017-29.482-12.017H78.419s-7.416 1.026-12.501-5.088c-4.771-5.698-4.661-12.142-4.661-12.142V192.653s-0.815-5.998 3.646-11.862c3.69-4.849 12.169-4.172 12.169-4.172h296.484c64.22 0 116.451 46.307 116.451 103.211v308.684c0 19.029 1.128 34.394 22.579 34.394 21.477 0 22.592-15.374 22.592-34.394V279.83c0-56.904 60.35-103.224 124.584-103.224h285.694s10.151-0.888 15.213 5.864c5.068 6.788 3.269 20.998 3.269 20.998v623.538s-0.194 5.774 0 12.175c0.108 3.69-4.288 6.425-4.288 6.425z" fill="#909493" p-id="4009"></path></svg>